<?xml version="1.0" encoding="UTF-8"?>
<svg width="107px" height="145px" viewBox="0 0 107 145" version="1.1" xmlns="http://www.w3.org/2000/svg" xmlns:xlink="http://www.w3.org/1999/xlink">
    <!-- Generator: Sketch 52.6 (67491) - http://www.bohemiancoding.com/sketch -->
    <title>cafe</title>
    <desc>Created with Sketch.</desc>
    <g id="Page-1" stroke="none" stroke-width="1" fill="none" fill-rule="evenodd">
        <g id="cafe" transform="translate(1.000000, 0.000000)">
            <path d="M75.726081,82 L77.6951566,82 L77.6951566,89.6091611 L85.4603514,89.6091611 C94.0434225,89.6091611 101,96.5669903 101,105.148519 C101,109.371372 99.2994347,113.19293 96.5680367,115.992731 C96.5680367,115.998905 96.5680367,116.005078 96.5680367,116.011252 C96.5495187,116.03286 96.5248281,116.048295 96.5063102,116.066816 C96.3859435,116.190291 96.2408862,116.292158 96.1143468,116.415634 C89.2966539,122.607916 82.2382277,126.667165 77.0964095,129.130495 C75.0409167,137.650286 67.4146066,144 58.2698243,144 L19.422246,144 C8.69726509,144 0,135.30117 0,124.574259 L0,82 L1.11724981,82 L1.11724981,122.22823 C1.11724981,132.955141 9.46902888,141.653971 19.7679757,141.653971 L57.0723913,141.653971 C65.8539106,141.653971 73.1772769,135.304257 75.1511182,126.784466 C75.5344267,123.746975 75.726081,116.839463 75.726081,106.061929 L75.726081,91.208487 L75.726081,87.2631317 L75.726081,82 Z M85.4572651,97.375753 L77.688984,97.375753 L77.688984,119.746378 C84.6393888,116.440329 88.4571734,113.270102 90.4818029,111.08459 L90.5003209,111.013592 C90.7071047,110.840727 90.8737662,110.621558 91.0558594,110.427085 C91.9724981,109.340503 92.4014973,108.584217 92.5342093,108.303311 C92.9755539,107.340204 93.2286325,106.278317 93.2286325,105.148519 C93.2286325,100.857755 89.7565164,97.375753 85.4572651,97.375753 Z" id="Combined-Shape" stroke="#10506D" fill="#10506D" fill-rule="nonzero"></path>
            <path d="M72.6565239,83.3602372 L22.4404395,53.3777067 L29.1777457,41.8421982 L79.3938301,71.8247287 L72.6565239,83.3602372 Z M68.6080978,99.3238346 L12.6777493,84.1266493 L16.0704376,71.3650783 L72.000786,86.5622636 L68.6080978,99.3238346 Z M67.2898847,116.53006 L9.77375036,111.176059 L10.9518097,98.2420157 L68.467944,103.596016 L67.2898847,116.53006 Z M9,120.154539 L66.7183365,120.154539 L66.7183365,133 L9,133 L9,120.154539 Z M58.7324808,13.1665789 L91.9606371,62.5700741 L81.1374889,70.0134539 L47.9093326,20.6099586 L58.7324808,13.1665789 Z M95.7948428,0.645829876 L105.944177,59.9123347 L93.5536971,62.0812681 L83.4043627,2.81476327 L95.7948428,0.645829876 Z" id="Combined-Shape" fill="#2AC3D3"></path>
        </g>
    </g>
</svg>